<?xml version="1.0" encoding="UTF-8" standalone="no"?><!DOCTYPE svg PUBLIC "-//W3C//DTD SVG 1.1//EN" "http://www.w3.org/Graphics/SVG/1.1/DTD/svg11.dtd"><svg width="100%" height="100%" viewBox="0 0 30 30" version="1.1" xmlns="http://www.w3.org/2000/svg" xmlns:xlink="http://www.w3.org/1999/xlink" xml:space="preserve" style="fill-rule:evenodd;clip-rule:evenodd;stroke-linecap:round;stroke-linejoin:round;stroke-miterlimit:1.41421;"><g><path d="M4.001,5.254l21.998,0l-5.5,22.28l-10.998,0l-5.5,-22.28Z" style="fill:none;stroke-width:0.85px;stroke:#ff4a5e;"/><path d="M27.548,4.944c0,-0.342 -0.278,-0.619 -0.62,-0.619l-23.856,0c-0.342,0 -0.62,0.277 -0.62,0.619c0,0.342 0.278,0.62 0.62,0.62l23.856,0c0.342,0 0.62,-0.278 0.62,-0.62Z" style="fill:#ff4a5e;"/><path d="M15.155,7.733c-0.171,0 -0.31,0.139 -0.31,0.31l0,16.712c0,0.171 0.139,0.31 0.31,0.31c0.171,0 0.31,-0.139 0.31,-0.31l0,-16.712c0,-0.171 -0.139,-0.31 -0.31,-0.31Z" style="fill:#ff4a5e;"/><path d="M11.747,7.733c-0.171,0 -0.31,0.139 -0.31,0.31l0,16.712c0,0.171 0.139,0.31 0.31,0.31c0.171,0 0.31,-0.139 0.31,-0.31l0,-16.712c0,-0.171 -0.139,-0.31 -0.31,-0.31Z" style="fill:#ff4a5e;"/><path d="M18.563,7.733c-0.171,0 -0.31,0.139 -0.31,0.31l0,16.712c0,0.171 0.139,0.31 0.31,0.31c0.171,0 0.31,-0.139 0.31,-0.31l0,-16.712c0,-0.171 -0.139,-0.31 -0.31,-0.31Z" style="fill:#ff4a5e;"/><path d="M17.943,3.323c0,-0.473 -0.384,-0.857 -0.857,-0.857l-4.172,0c-0.473,0 -0.857,0.384 -0.857,0.857l0,0.764c0,0.473 0.384,0.857 0.857,0.857l4.172,0c0.473,0 0.857,-0.384 0.857,-0.857l0,-0.764Z" style="fill:none;stroke-width:0.62px;stroke:#ff4a5e;"/></g></svg>